<?xml version="1.0" encoding="UTF-8"?>
<!DOCTYPE svg PUBLIC "-//W3C//DTD SVG 1.1//EN" "http://www.w3.org/Graphics/SVG/1.1/DTD/svg11.dtd">
<svg xmlns="http://www.w3.org/2000/svg" version="1.1" width="385px" height="242px" style="shape-rendering:geometricPrecision; text-rendering:geometricPrecision; image-rendering:optimizeQuality; fill-rule:evenodd; clip-rule:evenodd" xmlns:xlink="http://www.w3.org/1999/xlink">
<g><path style="opacity:0.153" fill="#b5b5b5" d="M 365.5,5.5 C 368.304,4.36216 371.304,4.19549 374.5,5C 375.942,5.37675 376.942,6.21009 377.5,7.5C 373.7,5.85681 369.7,5.19014 365.5,5.5 Z"/></g>
<g><path style="opacity:0.624" fill="#707070" d="M 363.5,6.5 C 361.833,8.83333 359.833,10.8333 357.5,12.5C 358.5,9.5 360.5,7.5 363.5,6.5 Z"/></g>
<g><path style="opacity:0.584" fill="#8a8a8a" d="M 378.5,8.5 C 380.262,9.26231 381.262,10.5956 381.5,12.5C 379.738,11.7377 378.738,10.4044 378.5,8.5 Z"/></g>
<g><path style="opacity:1" fill="#08090b" d="M 365.5,5.5 C 369.7,5.19014 373.7,5.85681 377.5,7.5C 378.167,7.5 378.5,7.83333 378.5,8.5C 378.738,10.4044 379.738,11.7377 381.5,12.5C 381.5,12.8333 381.5,13.1667 381.5,13.5C 381.665,16.5184 381.498,19.5184 381,22.5C 379.334,24.9957 377.5,27.329 375.5,29.5C 371.102,29.7059 366.768,29.3726 362.5,28.5C 362.027,27.0937 361.027,26.427 359.5,26.5C 359.5,26.1667 359.5,25.8333 359.5,25.5C 359.068,24.2905 358.401,23.2905 357.5,22.5C 357.5,19.1667 357.5,15.8333 357.5,12.5C 359.833,10.8333 361.833,8.83333 363.5,6.5C 363.842,5.66175 364.508,5.32842 365.5,5.5 Z"/></g>
<g><path style="opacity:0.545" fill="#999b9b" d="M 357.5,12.5 C 357.5,15.8333 357.5,19.1667 357.5,22.5C 355.036,19.1997 355.036,15.8664 357.5,12.5 Z"/></g>
<g><path style="opacity:0.149" fill="#b4b6b2" d="M 357.5,22.5 C 358.401,23.2905 359.068,24.2905 359.5,25.5C 357.952,25.1788 357.285,24.1788 357.5,22.5 Z"/></g>
<g><path style="opacity:0.529" fill="#9d9f9d" d="M 359.5,26.5 C 361.027,26.427 362.027,27.0937 362.5,28.5C 360.973,28.573 359.973,27.9063 359.5,26.5 Z"/></g>
<g><path style="opacity:0.075" fill="#c9cacc" d="M 381.5,13.5 C 382.641,16.6399 382.808,19.9733 382,23.5C 380.594,26.4086 378.428,28.4086 375.5,29.5C 377.5,27.329 379.334,24.9957 381,22.5C 381.498,19.5184 381.665,16.5184 381.5,13.5 Z"/></g>
<g><path style="opacity:0.584" fill="#929396" d="M 362.5,28.5 C 366.768,29.3726 371.102,29.7059 375.5,29.5C 370.942,32.189 366.608,31.8557 362.5,28.5 Z"/></g>
<g><path style="opacity:0.851" fill="#ede381" d="M 199.5,42.5 C 200.031,40.4559 201.198,38.7893 203,37.5C 203.49,36.2068 203.657,34.8734 203.5,33.5C 200.916,33.5688 198.916,34.7355 197.5,37C 195.866,37.4935 194.199,37.6602 192.5,37.5C 199.891,31.9684 207.725,26.9684 216,22.5C 216.52,24.2889 216.187,25.9556 215,27.5C 209.965,32.7031 204.798,37.7031 199.5,42.5 Z"/></g>
<g><path style="opacity:0.69" fill="#f1e57f" d="M 55.5,31.5 C 47.838,33.5121 40.1713,35.8454 32.5,38.5C 38.8725,34.646 45.7059,31.646 53,29.5C 54.3756,29.6842 55.2089,30.3509 55.5,31.5 Z"/></g>
<g><path style="opacity:1" fill="#f5db28" d="M 55.5,31.5 C 56.6439,40.6703 59.6439,49.0036 64.5,56.5C 64.5,56.8333 64.5,57.1667 64.5,57.5C 66.548,64.8162 68.7147,72.1495 71,79.5C 72.7548,82.9853 74.5881,86.3186 76.5,89.5C 76.3484,94.2874 77.015,98.9541 78.5,103.5C 81.3936,106.914 83.727,110.58 85.5,114.5C 86.0949,118.615 87.0949,122.615 88.5,126.5C 93.0561,126.446 95.5561,124.112 96,119.5C 102.3,111.033 109.466,103.367 117.5,96.5C 120.603,94.5767 123.603,92.41 126.5,90C 128.587,86.0768 131.254,82.5768 134.5,79.5C 135.873,79.6567 137.207,79.49 138.5,79C 140.5,76.6667 142.5,74.3333 144.5,72C 145.793,71.51 147.127,71.3433 148.5,71.5C 148.392,69.4862 149.058,67.8195 150.5,66.5C 154.753,67.1464 157.586,65.4797 159,61.5C 162.358,58.9688 165.524,56.3021 168.5,53.5C 171.778,52.1911 174.778,50.3578 177.5,48C 178.793,47.51 180.127,47.3433 181.5,47.5C 182.552,47.6495 183.552,47.4828 184.5,47C 186.102,44.889 188.102,43.389 190.5,42.5C 194.703,43.5423 195.369,45.5423 192.5,48.5C 191.791,49.404 190.791,49.7373 189.5,49.5C 187.88,52.8067 186.213,56.14 184.5,59.5C 184.068,60.7095 183.401,61.7095 182.5,62.5C 179.805,64.1787 177.305,66.1787 175,68.5C 174.517,69.448 174.351,70.448 174.5,71.5C 170.728,72.2741 168.728,74.6074 168.5,78.5C 168.5,79.1667 168.167,79.5 167.5,79.5C 164.548,83.6032 160.714,86.9365 156,89.5C 155.505,91.4727 155.338,93.4727 155.5,95.5C 154.92,97.7488 153.587,99.4154 151.5,100.5C 147.948,103.387 145.615,107.053 144.5,111.5C 142.856,111.286 141.356,111.62 140,112.5C 136.759,118.902 132.925,124.902 128.5,130.5C 125.806,136.566 122.64,142.233 119,147.5C 116.399,153.806 113.899,160.14 111.5,166.5C 108.334,169.775 106.668,173.775 106.5,178.5C 105.504,178.414 104.671,178.748 104,179.5C 101.006,186.781 98.0057,194.114 95,201.5C 92.4247,208.593 90.5913,215.926 89.5,223.5C 88.8333,224.5 88.1667,225.5 87.5,226.5C 86.325,226.719 85.325,226.386 84.5,225.5C 83.7868,223.224 83.2868,220.891 83,218.5C 80.1608,214.813 77.3275,211.147 74.5,207.5C 72.6873,204.072 70.6873,200.739 68.5,197.5C 64.5893,186.207 59.9227,175.207 54.5,164.5C 53.3771,161.625 52.5438,158.625 52,155.5C 45.8507,151.202 42.8507,145.202 43,137.5C 41.2352,135.608 39.7352,133.608 38.5,131.5C 32.3114,118.152 25.8114,104.819 19,91.5C 18.2917,90.6195 17.4584,89.9528 16.5,89.5C 14.0391,82.9501 11.8724,76.2834 10,69.5C 8.58463,67.0392 7.08463,64.7059 5.5,62.5C 4.52577,60.2573 4.19244,57.924 4.5,55.5C 5.87344,55.6567 7.20677,55.49 8.5,55C 10.596,53.2342 12.9293,51.9009 15.5,51C 16.3366,49.9887 16.67,48.8221 16.5,47.5C 19.0163,47.2447 21.3496,46.4114 23.5,45C 26.921,43.3015 29.921,41.1348 32.5,38.5C 40.1713,35.8454 47.838,33.5121 55.5,31.5 Z"/></g>
<g><path style="opacity:0.769" fill="#ece480" d="M 338.5,40.5 C 339.85,39.1765 339.683,38.1765 338,37.5C 332.086,39.9638 326.252,42.2971 320.5,44.5C 329.582,39.2095 339.082,34.5429 349,30.5C 349.833,30.8333 350.667,31.1667 351.5,31.5C 347.669,35.247 343.335,38.247 338.5,40.5 Z"/></g>
<g><path style="opacity:1" fill="#eedc43" d="M 199.5,42.5 C 198.396,44.3885 197.063,46.0552 195.5,47.5C 194.391,47.5569 193.391,47.8902 192.5,48.5C 195.369,45.5423 194.703,43.5423 190.5,42.5C 188.102,43.389 186.102,44.889 184.5,47C 183.552,47.4828 182.552,47.6495 181.5,47.5C 184.888,43.7753 188.554,40.4419 192.5,37.5C 194.199,37.6602 195.866,37.4935 197.5,37C 198.916,34.7355 200.916,33.5688 203.5,33.5C 203.657,34.8734 203.49,36.2068 203,37.5C 201.198,38.7893 200.031,40.4559 199.5,42.5 Z"/></g>
<g><path style="opacity:0.867" fill="#f0e782" d="M 192.5,37.5 C 188.554,40.4419 184.888,43.7753 181.5,47.5C 180.127,47.3433 178.793,47.51 177.5,48C 174.778,50.3578 171.778,52.1911 168.5,53.5C 175.804,47.1773 183.804,41.844 192.5,37.5 Z"/></g>
<g><path style="opacity:0.384" fill="#f2e680" d="M 55.5,31.5 C 58.7349,39.6588 61.7349,47.9921 64.5,56.5C 59.6439,49.0036 56.6439,40.6703 55.5,31.5 Z"/></g>
<g><path style="opacity:0.941" fill="#eee26f" d="M 32.5,38.5 C 29.921,41.1348 26.921,43.3015 23.5,45C 21.3496,46.4114 19.0163,47.2447 16.5,47.5C 16.67,48.8221 16.3366,49.9887 15.5,51C 12.9293,51.9009 10.596,53.2342 8.5,55C 7.20677,55.49 5.87344,55.6567 4.5,55.5C 4.19244,57.924 4.52577,60.2573 5.5,62.5C 7.08463,64.7059 8.58463,67.0392 10,69.5C 11.8724,76.2834 14.0391,82.9501 16.5,89.5C 10.8511,79.7015 5.85105,69.5348 1.5,59C 1.90307,57.5272 2.56974,56.1939 3.5,55C 12.5711,48.4641 22.2378,42.9641 32.5,38.5 Z"/></g>
<g><path style="opacity:0.702" fill="#eee77f" d="M 314.5,47.5 C 314.586,48.4959 314.252,49.3292 313.5,50C 308.924,52.1235 304.257,53.9569 299.5,55.5C 304.016,52.0734 309.016,49.4068 314.5,47.5 Z"/></g>
<g><path style="opacity:0.18" fill="#f2e582" d="M 195.5,47.5 C 191.824,51.5413 188.157,55.5413 184.5,59.5C 186.213,56.14 187.88,52.8067 189.5,49.5C 190.791,49.7373 191.791,49.404 192.5,48.5C 193.391,47.8902 194.391,47.5569 195.5,47.5 Z"/></g>
<g><path style="opacity:1" fill="#f1df64" d="M 338.5,40.5 C 329.172,48.16 319.839,55.8266 310.5,63.5C 310.714,61.8561 310.38,60.3561 309.5,59C 311.74,58.023 314.073,57.523 316.5,57.5C 316.286,55.8561 316.62,54.3561 317.5,53C 319.218,52.654 320.885,52.154 322.5,51.5C 325.871,47.8413 329.537,44.6746 333.5,42C 335.154,41.3923 336.821,40.8923 338.5,40.5 Z"/></g>
<g><path style="opacity:0.584" fill="#eee479" d="M 64.5,57.5 C 69.0675,67.8589 73.0675,78.5256 76.5,89.5C 74.5881,86.3186 72.7548,82.9853 71,79.5C 68.7147,72.1495 66.548,64.8162 64.5,57.5 Z"/></g>
<g><path style="opacity:0.592" fill="#f0e57f" d="M 310.5,63.5 C 305.833,68.8333 300.833,73.8333 295.5,78.5C 295.721,76.3364 296.721,74.6697 298.5,73.5C 298.5,73.1667 298.5,72.8333 298.5,72.5C 300.048,72.1788 300.715,71.1788 300.5,69.5C 301.552,69.6495 302.552,69.4828 303.5,69C 304.851,65.805 307.185,63.9717 310.5,63.5 Z"/></g>
<g><path style="opacity:0.969" fill="#f1e474" d="M 168.5,53.5 C 165.524,56.3021 162.358,58.9688 159,61.5C 157.586,65.4797 154.753,67.1464 150.5,66.5C 155.936,61.3993 161.936,57.0659 168.5,53.5 Z"/></g>
<g><path style="opacity:0.314" fill="#f8eb8a" d="M 182.5,62.5 C 180.528,66.1051 177.861,69.1051 174.5,71.5C 174.351,70.448 174.517,69.448 175,68.5C 177.305,66.1787 179.805,64.1787 182.5,62.5 Z"/></g>
<g><path style="opacity:1" fill="#f7db22" d="M 298.5,72.5 C 298.5,72.8333 298.5,73.1667 298.5,73.5C 295.349,75.0733 292.016,76.0733 288.5,76.5C 285.042,77.2259 283.375,75.8925 283.5,72.5C 281.058,72.6463 280.391,71.813 281.5,70C 282.95,69.8829 284.45,70.0495 286,70.5C 287.365,70.1557 288.532,69.4891 289.5,68.5C 290.609,69.5896 291.609,69.5896 292.5,68.5C 291.675,67.6143 290.675,67.281 289.5,67.5C 289.5,66.1667 289.5,64.8333 289.5,63.5C 292.301,62.2341 295.301,61.4008 298.5,61C 300.447,58.9805 302.78,57.4805 305.5,56.5C 309.227,61.5297 307.56,63.863 300.5,63.5C 299.224,66.3356 298.558,69.3356 298.5,72.5 Z"/></g>
<g><path style="opacity:0.259" fill="#f4ec93" d="M 285.5,63.5 C 281.189,66.8052 276.855,70.1385 272.5,73.5C 271.167,73.8333 269.833,74.1667 268.5,74.5C 273.648,70.089 279.314,66.4223 285.5,63.5 Z"/></g>
<g><path style="opacity:0.945" fill="#ecdd67" d="M 299.5,55.5 C 297.053,58.8987 293.72,61.0654 289.5,62C 284.599,67.0148 278.932,70.8482 272.5,73.5C 276.855,70.1385 281.189,66.8052 285.5,63.5C 289.833,60.331 294.5,57.6643 299.5,55.5 Z"/></g>
<g><path style="opacity:0.812" fill="#eedf71" d="M 198.5,79.5 C 197.5,79.5 196.5,79.5 195.5,79.5C 195.663,77.1432 195.497,74.8098 195,72.5C 194.439,71.9781 193.772,71.6448 193,71.5C 190.084,72.5892 187.584,74.2558 185.5,76.5C 192.481,63.8004 196.815,64.8004 198.5,79.5 Z"/></g>
<g><path style="opacity:0.408" fill="#efe581" d="M 174.5,71.5 C 173.2,74.4323 171.2,76.7656 168.5,78.5C 168.728,74.6074 170.728,72.2741 174.5,71.5 Z"/></g>
<g><path style="opacity:0.98" fill="#eee36b" d="M 150.5,66.5 C 149.058,67.8195 148.392,69.4862 148.5,71.5C 147.127,71.3433 145.793,71.51 144.5,72C 142.5,74.3333 140.5,76.6667 138.5,79C 137.207,79.49 135.873,79.6567 134.5,79.5C 139.248,74.4159 144.581,70.0826 150.5,66.5 Z"/></g>
<g><path style="opacity:0.267" fill="#f9f098" d="M 179.5,83.5 C 177.312,87.2071 174.645,90.5405 171.5,93.5C 173.208,89.4281 175.874,86.0948 179.5,83.5 Z"/></g>
<g><path style="opacity:1" fill="#f3da34" d="M 338.5,40.5 C 336.821,40.8923 335.154,41.3923 333.5,42C 329.537,44.6746 325.871,47.8413 322.5,51.5C 320.885,52.154 319.218,52.654 317.5,53C 316.62,54.3561 316.286,55.8561 316.5,57.5C 314.073,57.523 311.74,58.023 309.5,59C 310.38,60.3561 310.714,61.8561 310.5,63.5C 307.185,63.9717 304.851,65.805 303.5,69C 302.552,69.4828 301.552,69.6495 300.5,69.5C 300.715,71.1788 300.048,72.1788 298.5,72.5C 298.558,69.3356 299.224,66.3356 300.5,63.5C 307.56,63.863 309.227,61.5297 305.5,56.5C 302.78,57.4805 300.447,58.9805 298.5,61C 295.301,61.4008 292.301,62.2341 289.5,63.5C 289.5,64.8333 289.5,66.1667 289.5,67.5C 290.675,67.281 291.675,67.6143 292.5,68.5C 291.609,69.5896 290.609,69.5896 289.5,68.5C 288.532,69.4891 287.365,70.1557 286,70.5C 284.45,70.0495 282.95,69.8829 281.5,70C 280.391,71.813 281.058,72.6463 283.5,72.5C 283.375,75.8925 285.042,77.2259 288.5,76.5C 292.016,76.0733 295.349,75.0733 298.5,73.5C 296.721,74.6697 295.721,76.3364 295.5,78.5C 291.75,80.5511 288.083,82.8844 284.5,85.5C 284.5,83.8333 284.5,82.1667 284.5,80.5C 285.873,80.6567 287.207,80.49 288.5,80C 284.575,77.7978 280.409,75.9645 276,74.5C 273.238,75.5478 270.571,76.8811 268,78.5C 267.748,80.9313 268.248,83.2646 269.5,85.5C 268.846,87.1151 268.346,88.7818 268,90.5C 265.599,91.6023 263.099,91.769 260.5,91C 263.321,88.8587 264.654,86.0254 264.5,82.5C 261.951,83.5091 259.285,84.3425 256.5,85C 253.842,88.6575 250.842,91.9908 247.5,95C 245.564,95.813 243.564,96.313 241.5,96.5C 241.5,97.8333 241.5,99.1667 241.5,100.5C 239.473,100.338 237.473,100.505 235.5,101C 231.22,105.126 226.554,108.626 221.5,111.5C 229.226,103.589 237.892,97.0891 247.5,92C 250.098,88.3859 253.098,85.2192 256.5,82.5C 261.197,80.8225 265.197,78.1558 268.5,74.5C 269.833,74.1667 271.167,73.8333 272.5,73.5C 278.932,70.8482 284.599,67.0148 289.5,62C 293.72,61.0654 297.053,58.8987 299.5,55.5C 304.257,53.9569 308.924,52.1235 313.5,50C 314.252,49.3292 314.586,48.4959 314.5,47.5C 316.181,45.9925 318.181,44.9925 320.5,44.5C 326.252,42.2971 332.086,39.9638 338,37.5C 339.683,38.1765 339.85,39.1765 338.5,40.5 Z"/></g>
<g><path style="opacity:0.937" fill="#f1e16e" d="M 167.5,79.5 C 163.878,85.1215 159.878,90.4549 155.5,95.5C 155.338,93.4727 155.505,91.4727 156,89.5C 160.714,86.9365 164.548,83.6032 167.5,79.5 Z"/></g>
<g><path style="opacity:0.961" fill="#eedf5c" d="M 134.5,79.5 C 131.254,82.5768 128.587,86.0768 126.5,90C 123.603,92.41 120.603,94.5767 117.5,96.5C 119.833,93.8333 122.167,91.1667 124.5,88.5C 127.231,84.7657 130.564,81.7657 134.5,79.5 Z"/></g>
<g><path style="opacity:1" fill="#f5db26" d="M 198.5,79.5 C 198.5,79.8333 198.5,80.1667 198.5,80.5C 199.293,93.3396 202.626,105.34 208.5,116.5C 208.843,118.225 209.843,118.725 211.5,118C 215.003,115.978 218.337,113.811 221.5,111.5C 226.554,108.626 231.22,105.126 235.5,101C 237.473,100.505 239.473,100.338 241.5,100.5C 241.5,99.1667 241.5,97.8333 241.5,96.5C 243.564,96.313 245.564,95.813 247.5,95C 250.842,91.9908 253.842,88.6575 256.5,85C 259.285,84.3425 261.951,83.5091 264.5,82.5C 264.654,86.0254 263.321,88.8587 260.5,91C 263.099,91.769 265.599,91.6023 268,90.5C 268.346,88.7818 268.846,87.1151 269.5,85.5C 268.248,83.2646 267.748,80.9313 268,78.5C 270.571,76.8811 273.238,75.5478 276,74.5C 280.409,75.9645 284.575,77.7978 288.5,80C 287.207,80.49 285.873,80.6567 284.5,80.5C 284.5,82.1667 284.5,83.8333 284.5,85.5C 279.514,91.8187 274.181,97.8187 268.5,103.5C 266.506,105.816 265.506,108.482 265.5,111.5C 265.167,111.5 264.833,111.5 264.5,111.5C 261.47,113.706 258.803,116.372 256.5,119.5C 254.5,119.833 252.5,120.167 250.5,120.5C 249.713,123.848 248.879,127.182 248,130.5C 246.076,132.822 244.743,135.489 244,138.5C 240.864,140.164 239.697,142.831 240.5,146.5C 238.983,146.511 237.816,147.177 237,148.5C 232.71,157.358 228.877,166.358 225.5,175.5C 224.5,175.5 223.5,175.5 222.5,175.5C 222.539,177.359 221.706,178.692 220,179.5C 219.697,182.999 218.864,186.332 217.5,189.5C 209.207,199.273 204.207,210.606 202.5,223.5C 202.5,224.5 202.5,225.5 202.5,226.5C 201.142,227.626 199.808,227.626 198.5,226.5C 197.826,222.485 196.16,219.152 193.5,216.5C 191.778,208.937 189.445,201.603 186.5,194.5C 185.201,193.91 184.368,192.91 184,191.5C 184.03,187.558 182.53,184.558 179.5,182.5C 176.273,175.026 173.273,167.359 170.5,159.5C 168.051,152.312 165.884,144.979 164,137.5C 161.873,134.268 160.039,130.935 158.5,127.5C 155.513,121.736 156.18,116.403 160.5,111.5C 164.974,107.63 168.474,102.963 171,97.5C 171.49,96.2068 171.657,94.8734 171.5,93.5C 174.645,90.5405 177.312,87.2071 179.5,83.5C 180.757,80.5726 182.757,78.2393 185.5,76.5C 187.584,74.2558 190.084,72.5892 193,71.5C 193.772,71.6448 194.439,71.9781 195,72.5C 195.497,74.8098 195.663,77.1432 195.5,79.5C 196.5,79.5 197.5,79.5 198.5,79.5 Z"/></g>
<g><path style="opacity:0.82" fill="#efe16f" d="M 198.5,80.5 C 202.408,92.2389 205.741,104.239 208.5,116.5C 202.626,105.34 199.293,93.3396 198.5,80.5 Z"/></g>
<g><path style="opacity:0.376" fill="#f5ea8e" d="M 268.5,74.5 C 265.197,78.1558 261.197,80.8225 256.5,82.5C 260.148,79.3401 264.148,76.6735 268.5,74.5 Z"/></g>
<g><path style="opacity:0.976" fill="#eddf5c" d="M 76.5,89.5 C 79.722,97.6391 82.722,105.972 85.5,114.5C 83.727,110.58 81.3936,106.914 78.5,103.5C 77.015,98.9541 76.3484,94.2874 76.5,89.5 Z"/></g>
<g><path style="opacity:1" fill="#f1e370" d="M 295.5,78.5 C 285.432,89.2289 275.766,100.229 266.5,111.5C 266.167,111.5 265.833,111.5 265.5,111.5C 265.506,108.482 266.506,105.816 268.5,103.5C 274.181,97.8187 279.514,91.8187 284.5,85.5C 288.083,82.8844 291.75,80.5511 295.5,78.5 Z"/></g>
<g><path style="opacity:0.4" fill="#f2e780" d="M 256.5,82.5 C 253.098,85.2192 250.098,88.3859 247.5,92C 237.892,97.0891 229.226,103.589 221.5,111.5C 218.337,113.811 215.003,115.978 211.5,118C 209.843,118.725 208.843,118.225 208.5,116.5C 209.117,116.611 209.617,116.944 210,117.5C 218.789,111.046 227.289,104.213 235.5,97C 242.398,91.9208 249.398,87.0874 256.5,82.5 Z"/></g>
<g><path style="opacity:0.341" fill="#f5ec8a" d="M 124.5,88.5 C 122.167,91.1667 119.833,93.8333 117.5,96.5C 109.466,103.367 102.3,111.033 96,119.5C 95.5561,124.112 93.0561,126.446 88.5,126.5C 87.0949,122.615 86.0949,118.615 85.5,114.5C 86.8908,116.96 88.0575,119.626 89,122.5C 89.5613,123.022 90.228,123.355 91,123.5C 100.63,110.37 111.796,98.7034 124.5,88.5 Z"/></g>
<g><path style="opacity:0.157" fill="#f5ee8c" d="M 151.5,100.5 C 149.554,104.439 147.221,108.106 144.5,111.5C 145.615,107.053 147.948,103.387 151.5,100.5 Z"/></g>
<g><path style="opacity:0.271" fill="#f1e579" d="M 16.5,89.5 C 17.4584,89.9528 18.2917,90.6195 19,91.5C 25.8114,104.819 32.3114,118.152 38.5,131.5C 39.1495,133.435 39.4828,135.435 39.5,137.5C 31.3346,121.833 23.6679,105.833 16.5,89.5 Z"/></g>
<g><path style="opacity:1" fill="#eddd5e" d="M 171.5,93.5 C 171.657,94.8734 171.49,96.2068 171,97.5C 168.474,102.963 164.974,107.63 160.5,111.5C 162.238,109.079 163.571,106.412 164.5,103.5C 166.062,99.6082 168.395,96.2749 171.5,93.5 Z"/></g>
<g><path style="opacity:1" fill="#efdc40" d="M 264.5,111.5 C 259.249,118.992 253.749,126.326 248,133.5C 246.214,136.736 244.714,140.07 243.5,143.5C 243.573,145.027 242.906,146.027 241.5,146.5C 241.167,146.5 240.833,146.5 240.5,146.5C 239.697,142.831 240.864,140.164 244,138.5C 244.743,135.489 246.076,132.822 248,130.5C 248.879,127.182 249.713,123.848 250.5,120.5C 252.5,120.167 254.5,119.833 256.5,119.5C 258.803,116.372 261.47,113.706 264.5,111.5 Z"/></g>
<g><path style="opacity:0.922" fill="#f1e67c" d="M 144.5,111.5 C 132.731,129.372 121.731,147.705 111.5,166.5C 113.899,160.14 116.399,153.806 119,147.5C 122.64,142.233 125.806,136.566 128.5,130.5C 132.925,124.902 136.759,118.902 140,112.5C 141.356,111.62 142.856,111.286 144.5,111.5 Z"/></g>
<g><path style="opacity:0.176" fill="#f7ec96" d="M 264.5,111.5 C 264.833,111.5 265.167,111.5 265.5,111.5C 265.833,111.5 266.167,111.5 266.5,111.5C 258.801,122.19 251.135,132.857 243.5,143.5C 244.714,140.07 246.214,136.736 248,133.5C 253.749,126.326 259.249,118.992 264.5,111.5 Z"/></g>
<g><path style="opacity:0.451" fill="#f7ec94" d="M 164.5,103.5 C 163.571,106.412 162.238,109.079 160.5,111.5C 156.18,116.403 155.513,121.736 158.5,127.5C 161.144,138.778 165.144,149.445 170.5,159.5C 173.273,167.359 176.273,175.026 179.5,182.5C 181.5,185.841 182.5,189.507 182.5,193.5C 172.473,170.6 163.306,147.266 155,123.5C 155.196,115.441 158.362,108.775 164.5,103.5 Z"/></g>
<g><path style="opacity:1" fill="#ebda53" d="M 158.5,127.5 C 160.039,130.935 161.873,134.268 164,137.5C 165.884,144.979 168.051,152.312 170.5,159.5C 165.144,149.445 161.144,138.778 158.5,127.5 Z"/></g>
<g><path style="opacity:0.839" fill="#f3e784" d="M 240.5,146.5 C 240.833,146.5 241.167,146.5 241.5,146.5C 236.417,156.335 231.084,166.002 225.5,175.5C 228.877,166.358 232.71,157.358 237,148.5C 237.816,147.177 238.983,146.511 240.5,146.5 Z"/></g>
<g><path style="opacity:1" fill="#eedf57" d="M 38.5,131.5 C 39.7352,133.608 41.2352,135.608 43,137.5C 42.8507,145.202 45.8507,151.202 52,155.5C 52.5438,158.625 53.3771,161.625 54.5,164.5C 53.5,163.833 52.5,163.167 51.5,162.5C 46.7183,154.601 42.7183,146.268 39.5,137.5C 39.4828,135.435 39.1495,133.435 38.5,131.5 Z"/></g>
<g><path style="opacity:0.58" fill="#f1e57b" d="M 51.5,162.5 C 52.5,163.167 53.5,163.833 54.5,164.5C 59.9227,175.207 64.5893,186.207 68.5,197.5C 62.4366,186.081 56.7699,174.414 51.5,162.5 Z"/></g>
<g><path style="opacity:0.082" fill="#f9f4aa" d="M 111.5,166.5 C 110.352,170.787 108.685,174.787 106.5,178.5C 106.668,173.775 108.334,169.775 111.5,166.5 Z"/></g>
<g><path style="opacity:0.016" fill="#c2c2c2" d="M 128.5,173.5 C 129.623,172.243 130.289,172.576 130.5,174.5C 129.833,174.167 129.167,173.833 128.5,173.5 Z"/></g>
<g><path style="opacity:0.208" fill="#acadac" d="M 128.5,173.5 C 128.021,175.889 126.688,177.556 124.5,178.5C 125.136,176.205 126.469,174.539 128.5,173.5 Z"/></g>
<g><path style="opacity:0.125" fill="#babcbb" d="M 130.5,174.5 C 132.822,175.802 134.155,177.802 134.5,180.5C 132.674,178.853 131.34,176.853 130.5,174.5 Z"/></g>
<g><path style="opacity:0.976" fill="#f4e981" d="M 225.5,175.5 C 221.737,184.024 217.737,192.358 213.5,200.5C 214.519,196.781 215.852,193.114 217.5,189.5C 218.864,186.332 219.697,182.999 220,179.5C 221.706,178.692 222.539,177.359 222.5,175.5C 223.5,175.5 224.5,175.5 225.5,175.5 Z"/></g>
<g><path style="opacity:0.149" fill="#c9cbca" d="M 124.5,178.5 C 124.25,180.674 123.25,182.341 121.5,183.5C 121.75,181.326 122.75,179.659 124.5,178.5 Z"/></g>
<g><path style="opacity:0.161" fill="#f9eea0" d="M 106.5,178.5 C 100.213,193.375 94.5458,208.375 89.5,223.5C 90.5913,215.926 92.4247,208.593 95,201.5C 98.0057,194.114 101.006,186.781 104,179.5C 104.671,178.748 105.504,178.414 106.5,178.5 Z"/></g>
<g><path style="opacity:1" fill="#6a6c6a" d="M 162.5,180.5 C 164.293,182.426 165.293,184.759 165.5,187.5C 164.034,186.653 163.2,185.32 163,183.5C 162.346,184.696 161.846,184.696 161.5,183.5C 162.127,182.583 162.461,181.583 162.5,180.5 Z"/></g>
<g><path style="opacity:0.286" fill="#aeb0af" d="M 121.5,183.5 C 121.573,185.027 120.906,186.027 119.5,186.5C 119.427,184.973 120.094,183.973 121.5,183.5 Z"/></g>
<g><path style="opacity:0.302" fill="#b2b4b3" d="M 119.5,186.5 C 119.573,188.027 118.906,189.027 117.5,189.5C 117.427,187.973 118.094,186.973 119.5,186.5 Z"/></g>
<g><path style="opacity:0.78" fill="#767778" d="M 165.5,187.5 C 166.931,188.78 167.598,190.447 167.5,192.5C 165.787,191.365 165.12,189.698 165.5,187.5 Z"/></g>
<g><path style="opacity:1" fill="#0b0c0d" d="M 128.5,173.5 C 129.167,173.833 129.833,174.167 130.5,174.5C 131.34,176.853 132.674,178.853 134.5,180.5C 134.427,182.027 135.094,183.027 136.5,183.5C 136.427,185.027 137.094,186.027 138.5,186.5C 138.427,188.027 139.094,189.027 140.5,189.5C 140.427,191.027 141.094,192.027 142.5,192.5C 142.427,194.027 143.094,195.027 144.5,195.5C 144.461,196.756 144.961,197.756 146,198.5C 147.372,197.09 148.205,195.423 148.5,193.5C 149.906,193.027 150.573,192.027 150.5,190.5C 150.328,189.508 150.662,188.842 151.5,188.5C 153.25,187.341 154.25,185.674 154.5,183.5C 156.326,181.853 157.66,179.853 158.5,177.5C 158.811,176.522 159.478,175.855 160.5,175.5C 161.95,176.85 162.617,178.516 162.5,180.5C 162.461,181.583 162.127,182.583 161.5,183.5C 161.846,184.696 162.346,184.696 163,183.5C 163.2,185.32 164.034,186.653 165.5,187.5C 165.12,189.698 165.787,191.365 167.5,192.5C 168.833,193.167 168.833,193.833 167.5,194.5C 166.026,195.436 165.026,196.77 164.5,198.5C 164.672,199.492 164.338,200.158 163.5,200.5C 163.44,199.957 163.107,199.624 162.5,199.5C 161.833,200.5 161.167,201.5 160.5,202.5C 157.739,201.65 157.072,202.65 158.5,205.5C 156.995,206.842 156.328,208.508 156.5,210.5C 155.326,211.514 154.66,212.847 154.5,214.5C 151.723,216.951 149.723,219.951 148.5,223.5C 147.094,223.973 146.427,224.973 146.5,226.5C 145.094,226.973 144.427,227.973 144.5,229.5C 143.609,230.11 142.609,230.443 141.5,230.5C 140.599,229.71 139.932,228.71 139.5,227.5C 139.573,225.973 138.906,224.973 137.5,224.5C 137.446,222.368 136.446,221.035 134.5,220.5C 133.662,220.158 133.328,219.492 133.5,218.5C 133.123,216.742 132.456,215.075 131.5,213.5C 131.709,212.914 132.043,212.414 132.5,212C 130.751,211.215 129.084,210.382 127.5,209.5C 126.833,209.5 126.5,209.167 126.5,208.5C 126.573,206.973 125.906,205.973 124.5,205.5C 124.573,203.973 123.906,202.973 122.5,202.5C 122.573,200.973 121.906,199.973 120.5,199.5C 118.485,197.324 116.818,194.824 115.5,192C 116.066,191.005 116.733,190.172 117.5,189.5C 118.906,189.027 119.573,188.027 119.5,186.5C 120.906,186.027 121.573,185.027 121.5,183.5C 123.25,182.341 124.25,180.674 124.5,178.5C 126.688,177.556 128.021,175.889 128.5,173.5 Z"/></g>
<g><path style="opacity:0.216" fill="#bfc1c0" d="M 138.5,186.5 C 139.906,186.973 140.573,187.973 140.5,189.5C 139.094,189.027 138.427,188.027 138.5,186.5 Z"/></g>
<g><path style="opacity:0.18" fill="#cdcdcd" d="M 154.5,183.5 C 154.25,185.674 153.25,187.341 151.5,188.5C 151.75,186.326 152.75,184.659 154.5,183.5 Z"/></g>
<g><path style="opacity:0.231" fill="#b7b9b8" d="M 136.5,183.5 C 137.906,183.973 138.573,184.973 138.5,186.5C 137.094,186.027 136.427,185.027 136.5,183.5 Z"/></g>
<g><path style="opacity:0.271" fill="#c1c1c1" d="M 158.5,177.5 C 157.66,179.853 156.326,181.853 154.5,183.5C 154.845,180.802 156.178,178.802 158.5,177.5 Z"/></g>
<g><path style="opacity:0.231" fill="#acaead" d="M 134.5,180.5 C 135.906,180.973 136.573,181.973 136.5,183.5C 135.094,183.027 134.427,182.027 134.5,180.5 Z"/></g>
<g><path style="opacity:0.078" fill="#d7d8d9" d="M 140.5,189.5 C 141.906,189.973 142.573,190.973 142.5,192.5C 141.094,192.027 140.427,191.027 140.5,189.5 Z"/></g>
<g><path style="opacity:0.227" fill="#b5b6b7" d="M 150.5,190.5 C 150.573,192.027 149.906,193.027 148.5,193.5C 148.427,191.973 149.094,190.973 150.5,190.5 Z"/></g>
<g><path style="opacity:0.176" fill="#d1d2d4" d="M 142.5,192.5 C 143.906,192.973 144.573,193.973 144.5,195.5C 143.094,195.027 142.427,194.027 142.5,192.5 Z"/></g>
<g><path style="opacity:0.314" fill="#babbbd" d="M 148.5,193.5 C 148.205,195.423 147.372,197.09 146,198.5C 144.961,197.756 144.461,196.756 144.5,195.5C 145.117,195.611 145.617,195.944 146,196.5C 146.377,195.058 147.21,194.058 148.5,193.5 Z"/></g>
<g><path style="opacity:0.153" fill="#c9c9c9" d="M 167.5,194.5 C 167.446,196.632 166.446,197.965 164.5,198.5C 165.026,196.77 166.026,195.436 167.5,194.5 Z"/></g>
<g><path style="opacity:0.016" fill="#d3d4d3" d="M 120.5,199.5 C 121.906,199.973 122.573,200.973 122.5,202.5C 121.094,202.027 120.427,201.027 120.5,199.5 Z"/></g>
<g><path style="opacity:0.98" fill="#4b4c4c" d="M 163.5,200.5 C 161.925,204.078 159.925,207.411 157.5,210.5C 157.167,210.5 156.833,210.5 156.5,210.5C 156.328,208.508 156.995,206.842 158.5,205.5C 157.072,202.65 157.739,201.65 160.5,202.5C 161.167,201.5 161.833,200.5 162.5,199.5C 163.107,199.624 163.44,199.957 163.5,200.5 Z"/></g>
<g><path style="opacity:0.004" fill="#d8d8d8" d="M 122.5,202.5 C 123.906,202.973 124.573,203.973 124.5,205.5C 123.094,205.027 122.427,204.027 122.5,202.5 Z"/></g>
<g><path style="opacity:0.11" fill="#f5ea90" d="M 68.5,197.5 C 70.6873,200.739 72.6873,204.072 74.5,207.5C 77.254,212.166 79.254,217.166 80.5,222.5C 75.3665,214.797 71.3665,206.464 68.5,197.5 Z"/></g>
<g><path style="opacity:0.078" fill="#dadada" d="M 124.5,205.5 C 125.906,205.973 126.573,206.973 126.5,208.5C 125.094,208.027 124.427,207.027 124.5,205.5 Z"/></g>
<g><path style="opacity:1" fill="#ebdb55" d="M 179.5,182.5 C 182.53,184.558 184.03,187.558 184,191.5C 184.368,192.91 185.201,193.91 186.5,194.5C 189.445,201.603 191.778,208.937 193.5,216.5C 191.16,211.798 188.827,207.131 186.5,202.5C 184.796,199.744 183.463,196.744 182.5,193.5C 182.5,189.507 181.5,185.841 179.5,182.5 Z"/></g>
<g><path style="opacity:0.973" fill="#555759" d="M 127.5,209.5 C 129.084,210.382 130.751,211.215 132.5,212C 132.043,212.414 131.709,212.914 131.5,213.5C 132.456,215.075 133.123,216.742 133.5,218.5C 130.769,216.054 128.769,213.054 127.5,209.5 Z"/></g>
<g><path style="opacity:1" fill="#eddc4b" d="M 217.5,189.5 C 215.852,193.114 214.519,196.781 213.5,200.5C 213.293,203.241 212.293,205.574 210.5,207.5C 209.624,207.369 208.957,207.702 208.5,208.5C 206.441,212.932 204.941,217.599 204,222.5C 203.617,223.056 203.117,223.389 202.5,223.5C 204.207,210.606 209.207,199.273 217.5,189.5 Z"/></g>
<g><path style="opacity:0.055" fill="#d8dad9" d="M 156.5,210.5 C 156.833,210.5 157.167,210.5 157.5,210.5C 156.974,212.23 155.974,213.564 154.5,214.5C 154.66,212.847 155.326,211.514 156.5,210.5 Z"/></g>
<g><path style="opacity:0.09" fill="#cbcdcc" d="M 154.5,214.5 C 153.241,218.025 151.241,221.025 148.5,223.5C 149.723,219.951 151.723,216.951 154.5,214.5 Z"/></g>
<g><path style="opacity:0.271" fill="#f4eb97" d="M 210.5,207.5 C 207.866,216.582 204.366,225.248 200,233.5C 198.519,232.529 197.685,231.196 197.5,229.5C 200.285,230.084 201.952,229.084 202.5,226.5C 202.5,225.5 202.5,224.5 202.5,223.5C 203.117,223.389 203.617,223.056 204,222.5C 204.941,217.599 206.441,212.932 208.5,208.5C 208.957,207.702 209.624,207.369 210.5,207.5 Z"/></g>
<g><path style="opacity:1" fill="#ecda48" d="M 74.5,207.5 C 77.3275,211.147 80.1608,214.813 83,218.5C 83.2868,220.891 83.7868,223.224 84.5,225.5C 85.325,226.386 86.325,226.719 87.5,226.5C 87.9342,229.166 86.9342,230.333 84.5,230C 83.9729,226.995 82.6395,224.495 80.5,222.5C 79.254,217.166 77.254,212.166 74.5,207.5 Z"/></g>
<g><path style="opacity:0.714" fill="#949496" d="M 134.5,220.5 C 136.446,221.035 137.446,222.368 137.5,224.5C 136.026,223.564 135.026,222.23 134.5,220.5 Z"/></g>
<g><path style="opacity:0.984" fill="#ecdb61" d="M 193.5,216.5 C 196.16,219.152 197.826,222.485 198.5,226.5C 199.808,227.626 201.142,227.626 202.5,226.5C 201.952,229.084 200.285,230.084 197.5,229.5C 196.596,228.791 196.263,227.791 196.5,226.5C 196.08,222.993 195.08,219.659 193.5,216.5 Z"/></g>
<g><path style="opacity:0.31" fill="#f9ec97" d="M 186.5,202.5 C 188.827,207.131 191.16,211.798 193.5,216.5C 195.08,219.659 196.08,222.993 196.5,226.5C 192.598,218.808 189.264,210.808 186.5,202.5 Z"/></g>
<g><path style="opacity:0.027" fill="#c7c7c7" d="M 137.5,224.5 C 138.906,224.973 139.573,225.973 139.5,227.5C 138.094,227.027 137.427,226.027 137.5,224.5 Z"/></g>
<g><path style="opacity:0.106" fill="#d6d6d6" d="M 148.5,223.5 C 148.573,225.027 147.906,226.027 146.5,226.5C 146.427,224.973 147.094,223.973 148.5,223.5 Z"/></g>
<g><path style="opacity:0.035" fill="#d9d9d9" d="M 146.5,226.5 C 146.573,228.027 145.906,229.027 144.5,229.5C 144.427,227.973 145.094,226.973 146.5,226.5 Z"/></g>
<g><path style="opacity:0.216" fill="#f1ea9d" d="M 80.5,222.5 C 82.6395,224.495 83.9729,226.995 84.5,230C 86.9342,230.333 87.9342,229.166 87.5,226.5C 88.1667,225.5 88.8333,224.5 89.5,223.5C 89.5222,227.445 88.1888,230.778 85.5,233.5C 82.8804,230.325 81.2138,226.659 80.5,222.5 Z"/></g>
<g><path style="opacity:0.012" fill="#d1d1d1" d="M 144.5,229.5 C 143.947,231.552 142.947,231.885 141.5,230.5C 142.609,230.443 143.609,230.11 144.5,229.5 Z"/></g>
</svg>
